<svg xmlns="http://www.w3.org/2000/svg" viewBox="0 0 64 64" width="32" height="32">
  <rect x="18" y="18" width="28" height="28" rx="4" fill="#1e293b" stroke="#6366f1" stroke-width="2"/>
  <!-- chip inner square -->
  <rect x="24" y="24" width="16" height="16" rx="2" fill="#6366f1"/>
  <!-- neural node center -->
  <circle cx="32" cy="32" r="3.5" fill="#fff"/>
  <!-- neural nodes -->
  <circle cx="22" cy="22" r="2" fill="#818cf8"/>
  <circle cx="42" cy="22" r="2" fill="#818cf8"/>
  <circle cx="22" cy="42" r="2" fill="#818cf8"/>
  <circle cx="42" cy="42" r="2" fill="#818cf8"/>
  <!-- connections -->
  <line x1="25.5" y1="25.5" x2="29" y2="29" stroke="#c7d2fe" stroke-width="1.2"/>
  <line x1="38.5" y1="25.5" x2="35" y2="29" stroke="#c7d2fe" stroke-width="1.2"/>
  <line x1="25.5" y1="38.5" x2="29" y2="35" stroke="#c7d2fe" stroke-width="1.2"/>
  <line x1="38.5" y1="38.5" x2="35" y2="35" stroke="#c7d2fe" stroke-width="1.2"/>
  <!-- pins -->
  <rect x="28" y="12" width="8" height="6" rx="1.5" fill="#6366f1"/>
  <rect x="28" y="46" width="8" height="6" rx="1.5" fill="#6366f1"/>
  <rect x="12" y="28" width="6" height="8" rx="1.5" fill="#6366f1"/>
  <rect x="46" y="28" width="6" height="8" rx="1.5" fill="#6366f1"/>
</svg>
